<?xml version="1.0" standalone="no"?>
<!DOCTYPE svg PUBLIC "-//W3C//DTD SVG 1.1//EN" "http://www.w3.org/Graphics/SVG/1.1/DTD/svg11.dtd">
<svg width="484" height="484" version="1.1" xmlns="http://www.w3.org/2000/svg">
  <title>30 by 30 orthogonal maze</title>
  <desc>30 by 30 orthogonal maze generated by The Maze Generator Website (https://www.mazegenerator.net/).</desc>
  <g fill="none" stroke="#000000" stroke-width="2" stroke-linecap="square" stroke-linejoin="round">
    <polyline points="202,282 218,282 218,298" />
    <polyline points="170,330 170,314" />
    <polyline points="186,346 186,362" />
    <polyline points="122,442 122,458 74,458 74,442 42,442 42,426 10,426 10,442 26,442 26,474 42,474 42,458 58,458 58,474 186,474 186,458 234,458 234,394 218,394 218,410 202,410 202,442 218,442 218,426" />
    <polyline points="202,442 186,442 186,410 154,410 154,394 170,394" />
    <polyline points="218,394 218,378 314,378 314,346 234,346 234,362 298,362" />
    <polyline points="234,346 234,330 250,330 250,282 266,282 266,330 330,330 330,362 362,362 362,346 346,346 346,314 426,314 426,266 442,266 442,314 474,314 474,298" />
    <polyline points="458,314 458,282 474,282 474,266 458,266" />
    <polyline points="426,298 410,298 410,266" />
    <polyline points="426,314 426,330 474,330 474,378" />
    <polyline points="474,346 442,346" />
    <polyline points="426,330 410,330" />
    <polyline points="378,314 378,298 394,298 394,266 378,266 378,250 330,250 330,266 298,266 298,314 282,314 282,250 314,250 314,234 394,234 394,250 410,250 410,234 442,234 442,218 426,218" />
    <polyline points="442,234 442,250 426,250" />
    <polyline points="298,250 298,234 282,234 282,202" />
    <polyline points="314,266 314,282 330,282 330,314 314,314 314,298" />
    <polyline points="362,250 362,266 346,266" />
    <polyline points="394,282 346,282 346,298 362,298" />
    <polyline points="362,314 362,330 394,330 394,394 426,394 426,410 410,410 410,458" />
    <polyline points="410,442 458,442 458,410 474,410 474,394 458,394 458,362 442,362 442,426 426,426" />
    <polyline points="442,378 426,378 426,346 410,346 410,378" />
    <polyline points="458,426 474,426 474,474 442,474 442,458 426,458 426,474 394,474 394,410" />
    <polyline points="394,458 330,458 330,442 314,442 314,458 298,458 298,474 378,474" />
    <polyline points="298,474 266,474 266,426 250,426 250,474 202,474" />
    <polyline points="282,474 282,426 362,426 362,442 346,442" />
    <polyline points="298,426 298,442" />
    <polyline points="378,458 378,410 362,410 362,378 330,378 330,394 298,394 298,410 250,410 250,394 282,394" />
    <polyline points="346,378 346,410 314,410" />
    <polyline points="442,458 458,458" />
    <polyline points="394,362 378,362 378,394" />
    <polyline points="378,330 378,346" />
    <polyline points="170,474 170,426" />
    <polyline points="26,458 10,458 10,474" />
    <polyline points="74,394 74,410 90,410" />
    <polyline points="106,394 106,426" />
    <polyline points="122,362 138,362" />
    <polyline points="122,346 170,346" />
    <polyline points="138,314 138,234 106,234 106,186 122,186 122,218" />
    <polyline points="154,170 154,186 138,186 138,218 154,218 154,234 186,234 186,218 170,218 170,202 186,202 186,186 170,186" />
    <polyline points="186,186 250,186 250,170 266,170 266,186 282,186 282,170 314,170 314,186 330,186 330,154 314,154 314,138 346,138" />
    <polyline points="330,138 330,122 362,122 362,138 378,138 378,74 362,74 362,58" />
    <polyline points="378,106 362,106 362,90 346,90 346,106 314,106 314,122 298,122 298,106" />
    <polyline points="330,170 346,170 346,154 362,154 362,186 378,186 378,218" />
    <polyline points="378,202 362,202 362,218 330,218 330,202 314,202 314,218 298,218 298,186" />
    <polyline points="330,202 346,202 346,186" />
    <polyline points="186,234 186,250" />
    <polyline points="138,202 154,202" />
    <polyline points="266,154 266,138" />
    <polyline points="298,42 298,26 362,26 362,42 314,42" />
    <polyline points="218,10 186,10 186,26 170,26 170,58 186,58 186,42 202,42 202,26" />
    <polyline points="170,26 170,10 138,10 138,42 122,42 122,10 106,10 106,58 154,58 154,26" />
    <polyline points="138,58 138,74 186,74 186,122" />
    <polyline points="186,106 170,106 170,154" />
    <polyline points="170,138 186,138 186,154 218,154 218,138 202,138 202,122 218,122 218,74 202,74 202,58 218,58" />
    <polyline points="218,74 250,74" />
    <polyline points="234,74 234,106 250,106 250,90 266,90 266,74 282,74" />
    <polyline points="266,90 266,122 250,122 250,138 234,138 234,122" />
    <polyline points="186,90 106,90 106,106 90,106 90,42" />
    <polyline points="90,74 74,74 74,42 58,42 58,58 42,58 42,74 58,74 58,90 74,90 74,106 42,106 42,90 10,90 10,138 42,138 42,122 26,122 26,106" />
    <polyline points="26,138 26,154 10,154 10,202 26,202 26,266" />
    <polyline points="26,234 10,234 10,282 26,282 26,298 42,298 42,314 74,314 74,298 58,298" />
    <polyline points="74,298 90,298 90,282 106,282 106,314 90,314 90,330 58,330 58,346 74,346 74,362 106,362" />
    <polyline points="90,362 90,346" />
    <polyline points="74,362 42,362 42,378 26,378 26,410 42,410 42,394" />
    <polyline points="26,394 10,394 10,410" />
    <polyline points="10,394 10,330 26,330 26,314 10,314 10,298" />
    <polyline points="26,378 26,346 42,346 42,330" />
    <polyline points="10,234 10,218" />
    <polyline points="26,234 42,234 42,282 58,282 58,266 106,266" />
    <polyline points="74,266 74,282" />
    <polyline points="26,218 42,218 42,186 58,186 58,170 26,170 26,186" />
    <polyline points="58,186 58,218 74,218 74,154 42,154" />
    <polyline points="58,106 58,138 74,138 74,122 122,122 122,154" />
    <polyline points="106,90 106,74 122,74" />
    <polyline points="138,90 138,138 154,138 154,106" />
    <polyline points="138,106 122,106" />
    <polyline points="186,90 202,90 202,106" />
    <polyline points="106,26 90,26 90,10 74,10 74,26 58,26 58,10 26,10 26,26 42,26 42,42 26,42 26,74 10,74 10,10" />
    <polyline points="234,10 234,26 250,26 250,10 266,10 266,26 282,26 282,10 410,10 410,26 378,26 378,58 442,58 442,42 458,42 458,10 442,10 442,26 426,26 426,10" />
    <polyline points="426,58 426,74 442,74 442,122" />
    <polyline points="442,90 474,90 474,122" />
    <polyline points="474,106 458,106 458,138 474,138 474,186 458,186 458,170" />
    <polyline points="474,154 442,154 442,138 410,138 410,154 426,154 426,170 442,170 442,186 426,186 426,202 474,202 474,250 458,250 458,218" />
    <polyline points="426,202 410,202 410,218 394,218 394,186 410,186 410,170 378,170 378,154" />
    <polyline points="394,170 394,106 410,106 410,122 426,122 426,90 394,90 394,74 410,74" />
    <polyline points="458,90 458,58 474,58 474,10" />
    <polyline points="474,58 474,74" />
    <polyline points="426,58 426,42 394,42" />
  </g>
  <polyline fill="none" stroke="#ff0000" stroke-width="2" stroke-linecap="square" stroke-linejoin="round" points="234,2 234,10 218,10 218,42 234,42 234,58 250,58 250,42 266,42 266,58 282,58 282,42 298,42 298,58 346,58 346,74 330,74 330,90 314,90 314,74 298,74 298,90 282,90 282,138 298,138 298,154 234,154 234,170 154,170 154,154 138,154 138,170 106,170 106,138 90,138 90,234 58,234 58,250 122,250 122,314 138,314 138,330 106,330 106,346 122,346 122,394 106,394 106,378 90,378 90,394 74,394 74,378 58,378 58,426 90,426 90,442 138,442 138,458 154,458 154,426 122,426 122,410 138,410 138,378 154,378 154,362 170,362 170,378 186,378 186,394 202,394 202,362 218,362 218,346 186,346 186,330 154,330 154,298 170,298 170,282 154,282 154,250 170,250 170,266 186,266 186,282 202,282 202,298 186,298 186,314 202,314 202,330 218,330 218,314 234,314 234,274" />
</svg>
